<svg height="203.004772" viewBox="0 0 149.29 61.49" width="492.599257" xmlns="http://www.w3.org/2000/svg" xmlns:xlink="http://www.w3.org/1999/xlink"><clipPath id="a" transform="translate(-10.5 -1.56)"><path d="m10.51 1.56h149.28v61.49h-149.28z"/></clipPath><clipPath id="b" transform="translate(-10.5 -1.56)"><path d="m0 0h160.41v64.09h-160.41z"/></clipPath><g clip-path="url(#a)"><path d="m42.51 4.44c9.49 5.4 11.68 17.5 5.09 29.74-5.79 10.76-18.44 15.36-27.86 9.88s-11.26-20.77-7.21-29.56c5.88-12.77 19.52-16 30-10.06" fill="#0087b1" transform="translate(-10.5 -1.56)"/></g><g clip-path="url(#b)"><path d="m42.29 13.73a9.4 9.4 0 0 1 2.11 7.44 10 10 0 0 1 -4.9 7.14 16.15 16.15 0 0 1 -8.1 1.93c0 .46-.12 2.05-.16 2.3a1.67 1.67 0 0 1 -.36.78 2.74 2.74 0 0 1 -1.39.82 4.5 4.5 0 0 1 -1.15.17h-.15a1.43 1.43 0 0 1 -.88-.42 1.52 1.52 0 0 1 -.37-.9v-.31c-.06-.27-.4-13.92-.33-13.68.05-1.63 2.69-1.92 4.12-1.63s1.07 2 1 4.18c0 0-.07 2.82-.2 5.8a10.94 10.94 0 0 0 4.64-1.27 6.81 6.81 0 0 0 4.2-6.52c0-3.07-3-6.51-8.52-6.51s-7.85 1.38-10.55 3.59c-.6.5-1.06 1-1.5 1.33s-1.61.38-1.92-.39a2.69 2.69 0 0 1 .74-2.48 14.54 14.54 0 0 1 4-3.3 17.23 17.23 0 0 1 8-2.3c3.13-.07 8.07.18 11.63 4.2m-11.93 22.63a2.27 2.27 0 0 0 -.94-.45 2 2 0 0 0 -.34 0 2 2 0 0 0 -1.61.91 2.14 2.14 0 0 0 -.38 1.58 1.82 1.82 0 0 0 .38.88 2 2 0 0 0 1 .57 2.57 2.57 0 0 0 .73.1 2.17 2.17 0 0 0 1.38-.46 1.75 1.75 0 0 0 .62-1.46 2.2 2.2 0 0 0 -.84-1.69" fill="#fff" transform="translate(-10.5 -1.56)"/><g fill="#232120"><path d="m103.53 33.1a2.89 2.89 0 0 1 -.47.08c-.81 0-1-.68-1-1.73v-7.8c0-2.94-1.76-4.44-5.22-4.44-3.1 0-5.53 1.47-5.53 3.35a1.63 1.63 0 0 0 1.67 1.77 1.71 1.71 0 0 0 1.79-1.68 2.34 2.34 0 0 0 -.77-1.72 3.67 3.67 0 0 1 2.57-.93c1.8 0 2.57 1.07 2.57 3.57v1.9c-3.36.88-8.38 1.54-8.38 5.36 0 1.63 1 3.46 3.93 3.46a6.27 6.27 0 0 0 4.59-2.29c.14 1.66.81 2.29 2.31 2.29a4.64 4.64 0 0 0 2.14-.55.4.4 0 0 0 .21-.49c-.07-.19-.25-.2-.41-.17m-4.39-2.21a4.34 4.34 0 0 1 -3 2c-1.84 0-2.24-1.36-2.24-2.51 0-1.88 1.44-3 5.29-3.94z" transform="translate(-10.5 -1.56)"/><path d="m113.89 19.21c-1.43 0-2.79.81-4 2.73v-2.15a.4.4 0 0 0 -.42-.41l-3.83.1a.34.34 0 0 0 -.33.35.33.33 0 0 0 .28.36c1.26.18 1.43.78 1.43 1.4v10.73c0 .76-.19 1-1.41 1.08a.34.34 0 0 0 -.31.34.34.34 0 0 0 .34.33h6a.33.33 0 0 0 0-.66c-1.38-.07-1.74-.29-1.74-1.09v-8.82a4.79 4.79 0 0 1 2.88-2.76 3.08 3.08 0 0 0 -.09.66 1.8 1.8 0 1 0 3.59 0 2.16 2.16 0 0 0 -2.41-2.19" transform="translate(-10.5 -1.56)"/><path d="m159.48 33.4c-1.21-.07-1.41-.32-1.41-1.08v-8.76c0-2.76-1.47-4.35-4.18-4.35a6.15 6.15 0 0 0 -5.11 2.88v-2.3a.39.39 0 0 0 -.42-.41l-3.83.1a.36.36 0 0 0 0 .71c1.26.18 1.43.78 1.43 1.4v10.73c0 .76-.19 1-1.4 1.08a.34.34 0 0 0 -.31.34.33.33 0 0 0 .33.33h5.42a.34.34 0 0 0 0-.67c-1.15-.07-1.28-.33-1.28-1.08v-8.32c.89-1.8 2.44-3.15 3.94-3.15 1.85 0 2.48 1 2.48 3.58v7.92c0 .75-.15 1-1.13 1.08a.34.34 0 0 0 0 .67h5.36a.33.33 0 0 0 .33-.33.34.34 0 0 0 -.31-.34" transform="translate(-10.5 -1.56)"/><path d="m136.37 19.21a7.32 7.32 0 0 0 -7.21 7.55 7.21 7.21 0 1 0 14.41 0 7.31 7.31 0 0 0 -7.2-7.55m0 14.31c-3.12 0-4-3-4-6.76s.84-6.75 4-6.75 4 3 4 6.75-.85 6.76-4 6.76" transform="translate(-10.5 -1.56)"/><path d="m59.29 14.23c2.22.22 2.69 1 2.69 2.08v15c0 1.09-.47 1.86-2.69 2.08a.33.33 0 0 0 -.32.35.35.35 0 0 0 .34.36h8.75a.34.34 0 0 0 .33-.36.31.31 0 0 0 -.31-.35c-2.38-.18-2.89-.94-2.89-2.08v-5.46h2.71c3.86 0 8.35-1.12 8.35-6.18s-4.81-6.15-8.84-6.15h-8.1a.34.34 0 0 0 -.34.35.33.33 0 0 0 .32.36m5.9.24h2.26c4.53 0 5.18 2.5 5.18 5.21s-.65 5.2-5.18 5.2h-2.26z" transform="translate(-10.5 -1.56)"/><path d="m83 19.21c-3.81 0-6.91 3.46-6.91 7.7s2.91 7.4 6.91 7.4a6.22 6.22 0 0 0 5.86-3.38c.15-.28.11-.57-.06-.67a.36.36 0 0 0 -.46.12 5.08 5.08 0 0 1 -4.19 2.44c-4.23 0-5.06-4.34-4.88-7h9.2c.46 0 .55-.27.55-.73a5.62 5.62 0 0 0 -6-5.91m-3.72 5.7c.32-3.12 1.59-4.84 3.5-4.84 2.57 0 3 2.17 3 3.94v.9z" transform="translate(-10.5 -1.56)"/><path d="m123.05 25.06c-2.61-.75-3.68-1.49-3.68-2.67a2.38 2.38 0 0 1 2.55-2.39c1.7 0 2.8.91 4.23 3.65.09.19.18.32.38.32s.36-.17.36-.47v-3.9c0-.28-.06-.43-.25-.43a.53.53 0 0 0 -.36.2l-.62.64a7.21 7.21 0 0 0 -3.21-.84c-3 0-5.1 1.89-5.1 4.58 0 2.52 1.73 3.41 4.56 4.25s3.8 1.56 3.8 3.05a2.58 2.58 0 0 1 -2.71 2.43c-2.11 0-3.52-1.06-4.93-4.12-.09-.2-.2-.37-.4-.37s-.36.16-.36.46v4.45c0 .26.11.41.27.41a.51.51 0 0 0 .38-.2l.87-.85a7.15 7.15 0 0 0 3.84 1.05 4.54 4.54 0 0 0 4.92-4.81c0-2.3-1.21-3.47-4.52-4.44" transform="translate(-10.5 -1.56)"/><path d="m58.67 61.27h-9.32v-16.48h9.32v2.28h-6.63v4.48h6.21v2.26h-6.21v5.17h6.63z"/><path d="m76.65 63.05a4.32 4.32 0 0 1 -3.65-1.69 7.61 7.61 0 0 1 -1.31-4.74 7.54 7.54 0 0 1 1.31-4.77 4.36 4.36 0 0 1 3.66-1.71 4.28 4.28 0 0 1 3.77 1.86h.14a15.39 15.39 0 0 1 -.19-2.12v-4.59h2.62v17.54h-2l-.46-1.64h-.12a4.23 4.23 0 0 1 -3.73 1.86m.71-2.14a2.9 2.9 0 0 0 2.34-.91 4.83 4.83 0 0 0 .76-3v-.37a5.61 5.61 0 0 0 -.76-3.35 2.87 2.87 0 0 0 -2.4-1 2.45 2.45 0 0 0 -2.16 1.13 5.87 5.87 0 0 0 -.75 3.23 5.64 5.64 0 0 0 .73 3.16 2.47 2.47 0 0 0 2.2 1.09" transform="translate(-10.5 -1.56)"/><path d="m92.27 63.05a6 6 0 0 1 -4.55-1.69 6.48 6.48 0 0 1 -1.64-4.68 7.1 7.1 0 0 1 1.52-4.8 5.27 5.27 0 0 1 4.18-1.74 5.12 5.12 0 0 1 3.9 1.5 5.74 5.74 0 0 1 1.43 4.12v1.43h-8.3a4 4 0 0 0 1 2.79 3.39 3.39 0 0 0 2.6 1 9.6 9.6 0 0 0 2.06-.2 10.53 10.53 0 0 0 2-.7v2.16a8.51 8.51 0 0 1 -2 .65 11.85 11.85 0 0 1 -2.26.19m-.49-10.91a2.67 2.67 0 0 0 -2 .8 3.83 3.83 0 0 0 -.91 2.34h5.66a3.48 3.48 0 0 0 -.75-2.34 2.54 2.54 0 0 0 -2-.8" transform="translate(-10.5 -1.56)"/><path d="m92.59 54.9-4.18-6.1h3.02l2.84 4.36 2.87-4.36h2.99l-4.19 6.1 4.41 6.37h-3l-3.08-4.67-3.06 4.67h-3z"/><path d="m117.72 63.05a5.45 5.45 0 0 1 -4.3-1.65 6.9 6.9 0 0 1 -1.42-4.74 6.92 6.92 0 0 1 1.54-4.83 5.69 5.69 0 0 1 4.44-1.69 8.28 8.28 0 0 1 3.55.73l-.8 2.13a7.89 7.89 0 0 0 -2.77-.65c-2.16 0-3.23 1.43-3.23 4.29a5.18 5.18 0 0 0 .8 3.15 2.8 2.8 0 0 0 2.36 1.05 6.74 6.74 0 0 0 3.35-.88v2.31a5.13 5.13 0 0 1 -1.52.6 9 9 0 0 1 -2 .18" transform="translate(-10.5 -1.56)"/><path d="m129.49 63.05a6 6 0 0 1 -4.49-1.69 6.44 6.44 0 0 1 -1.64-4.68 7.05 7.05 0 0 1 1.52-4.8 5.26 5.26 0 0 1 4.12-1.74 5.15 5.15 0 0 1 3.9 1.5 5.74 5.74 0 0 1 1.43 4.12v1.43h-8.33a4.14 4.14 0 0 0 1 2.81 3.43 3.43 0 0 0 2.61 1 9.51 9.51 0 0 0 2-.2 10.38 10.38 0 0 0 2.05-.7v2.16a8.67 8.67 0 0 1 -2 .65 11.88 11.88 0 0 1 -2.27.19m-.39-10.96a2.66 2.66 0 0 0 -2 .8 3.83 3.83 0 0 0 -.91 2.34h5.66a3.48 3.48 0 0 0 -.75-2.34 2.54 2.54 0 0 0 -2-.8" transform="translate(-10.5 -1.56)"/><path d="m126.85 43.73h2.65v17.53h-2.65z"/></g></g></svg>